<mxfile host="app.diagrams.net" modified="2023-11-18T20:14:20.652Z" agent="Mozilla/5.0 (Windows NT 10.0; Win64; x64) AppleWebKit/537.36 (KHTML, like Gecko) Chrome/119.0.0.0 Safari/537.36 Edg/119.0.0.0" etag="z58zKXbE63WTIv0TbDPv" version="22.1.3" type="google">
  <diagram name="Page-1" id="a1ocnx6exUdsu85RU0AZ">
    <mxGraphModel grid="1" page="1" gridSize="10" guides="1" tooltips="1" connect="1" arrows="1" fold="1" pageScale="1" pageWidth="827" pageHeight="1169" math="0" shadow="0">
      <root>
        <mxCell id="0" />
        <mxCell id="1" parent="0" />
        <mxCell id="0_XSR3gXVcl1GsU1vEnl-1" value="Park In Peace App" style="sketch=0;aspect=fixed;pointerEvents=1;shadow=0;dashed=0;html=1;strokeColor=none;labelPosition=center;verticalLabelPosition=bottom;verticalAlign=top;align=center;fillColor=#00188D;shape=mxgraph.mscae.enterprise.android_phone" vertex="1" parent="1">
          <mxGeometry x="210" y="205" width="30" height="50" as="geometry" />
        </mxCell>
        <mxCell id="0_XSR3gXVcl1GsU1vEnl-2" value="User" style="shape=umlActor;verticalLabelPosition=bottom;verticalAlign=top;html=1;outlineConnect=0;" vertex="1" parent="1">
          <mxGeometry x="20" y="200" width="30" height="60" as="geometry" />
        </mxCell>
        <mxCell id="0_XSR3gXVcl1GsU1vEnl-3" value="Application Server" style="sketch=0;points=[[0,0,0],[0.25,0,0],[0.5,0,0],[0.75,0,0],[1,0,0],[0,1,0],[0.25,1,0],[0.5,1,0],[0.75,1,0],[1,1,0],[0,0.25,0],[0,0.5,0],[0,0.75,0],[1,0.25,0],[1,0.5,0],[1,0.75,0]];outlineConnect=0;fontColor=#232F3E;fillColor=#8C4FFF;strokeColor=#ffffff;dashed=0;verticalLabelPosition=bottom;verticalAlign=top;align=center;html=1;fontSize=12;fontStyle=0;aspect=fixed;shape=mxgraph.aws4.resourceIcon;resIcon=mxgraph.aws4.api_gateway;" vertex="1" parent="1">
          <mxGeometry x="390" y="191" width="78" height="78" as="geometry" />
        </mxCell>
        <mxCell id="0_XSR3gXVcl1GsU1vEnl-4" value="" style="strokeColor=#dddddd;shadow=1;strokeWidth=1;rounded=1;absoluteArcSize=1;arcSize=2;" vertex="1" parent="1">
          <mxGeometry x="379" y="10" width="100" height="60" as="geometry" />
        </mxCell>
        <mxCell id="0_XSR3gXVcl1GsU1vEnl-5" value="Firebase" style="sketch=0;dashed=0;connectable=0;html=1;fillColor=#5184F3;strokeColor=none;shape=mxgraph.gcp2.firebase;part=1;labelPosition=right;verticalLabelPosition=middle;align=left;verticalAlign=middle;spacingLeft=5;fontColor=#999999;fontSize=12;" vertex="1" parent="0_XSR3gXVcl1GsU1vEnl-4">
          <mxGeometry width="32.4" height="45" relative="1" as="geometry">
            <mxPoint x="5" y="7" as="offset" />
          </mxGeometry>
        </mxCell>
        <mxCell id="0_XSR3gXVcl1GsU1vEnl-7" value="URA API" style="html=1;whiteSpace=wrap;strokeColor=none;fillColor=#0079D6;labelPosition=center;verticalLabelPosition=middle;verticalAlign=top;align=center;fontSize=12;outlineConnect=0;spacingTop=-6;fontColor=#FFFFFF;sketch=0;shape=mxgraph.sitemap.cloud;" vertex="1" parent="1">
          <mxGeometry x="642" y="200" width="120" height="70" as="geometry" />
        </mxCell>
        <mxCell id="0_XSR3gXVcl1GsU1vEnl-9" value="" style="endArrow=classic;html=1;rounded=0;entryX=0;entryY=0.5;entryDx=0;entryDy=0;entryPerimeter=0;" edge="1" parent="1" source="0_XSR3gXVcl1GsU1vEnl-2" target="0_XSR3gXVcl1GsU1vEnl-1">
          <mxGeometry width="50" height="50" relative="1" as="geometry">
            <mxPoint x="380" y="310" as="sourcePoint" />
            <mxPoint x="430" y="260" as="targetPoint" />
          </mxGeometry>
        </mxCell>
        <mxCell id="0_XSR3gXVcl1GsU1vEnl-10" value="start trip" style="edgeLabel;html=1;align=center;verticalAlign=middle;resizable=0;points=[];" vertex="1" connectable="0" parent="0_XSR3gXVcl1GsU1vEnl-9">
          <mxGeometry x="-0.0375" y="2" relative="1" as="geometry">
            <mxPoint as="offset" />
          </mxGeometry>
        </mxCell>
        <mxCell id="0_XSR3gXVcl1GsU1vEnl-11" value="" style="endArrow=classic;html=1;rounded=0;exitX=1;exitY=0.5;exitDx=0;exitDy=0;exitPerimeter=0;entryX=0;entryY=0.5;entryDx=0;entryDy=0;entryPerimeter=0;" edge="1" parent="1" source="0_XSR3gXVcl1GsU1vEnl-1" target="0_XSR3gXVcl1GsU1vEnl-3">
          <mxGeometry width="50" height="50" relative="1" as="geometry">
            <mxPoint x="380" y="310" as="sourcePoint" />
            <mxPoint x="430" y="260" as="targetPoint" />
          </mxGeometry>
        </mxCell>
        <mxCell id="0_XSR3gXVcl1GsU1vEnl-12" value="subscribes" style="edgeLabel;html=1;align=center;verticalAlign=middle;resizable=0;points=[];" vertex="1" connectable="0" parent="0_XSR3gXVcl1GsU1vEnl-11">
          <mxGeometry x="0.4" relative="1" as="geometry">
            <mxPoint x="-15" as="offset" />
          </mxGeometry>
        </mxCell>
        <mxCell id="0_XSR3gXVcl1GsU1vEnl-13" value="" style="endArrow=classic;html=1;rounded=0;entryX=0;entryY=0.5;entryDx=0;entryDy=0;entryPerimeter=0;" edge="1" parent="1" target="0_XSR3gXVcl1GsU1vEnl-7">
          <mxGeometry width="50" height="50" relative="1" as="geometry">
            <mxPoint x="470" y="230" as="sourcePoint" />
            <mxPoint x="580" y="191" as="targetPoint" />
          </mxGeometry>
        </mxCell>
        <mxCell id="0_XSR3gXVcl1GsU1vEnl-14" value="polls" style="edgeLabel;html=1;align=center;verticalAlign=middle;resizable=0;points=[];" vertex="1" connectable="0" parent="0_XSR3gXVcl1GsU1vEnl-13">
          <mxGeometry x="0.4219" y="-3" relative="1" as="geometry">
            <mxPoint x="-26" y="-4" as="offset" />
          </mxGeometry>
        </mxCell>
        <mxCell id="0_XSR3gXVcl1GsU1vEnl-17" value="" style="endArrow=classic;html=1;rounded=0;entryX=0.41;entryY=0.975;entryDx=0;entryDy=0;entryPerimeter=0;dashed=1;" edge="1" parent="1" target="0_XSR3gXVcl1GsU1vEnl-4">
          <mxGeometry width="50" height="50" relative="1" as="geometry">
            <mxPoint x="418" y="191" as="sourcePoint" />
            <mxPoint x="468" y="141" as="targetPoint" />
          </mxGeometry>
        </mxCell>
        <mxCell id="0_XSR3gXVcl1GsU1vEnl-18" value="notifies [if full]" style="edgeLabel;html=1;align=center;verticalAlign=middle;resizable=0;points=[];" vertex="1" connectable="0" parent="0_XSR3gXVcl1GsU1vEnl-17">
          <mxGeometry x="-0.008" relative="1" as="geometry">
            <mxPoint as="offset" />
          </mxGeometry>
        </mxCell>
        <mxCell id="0_XSR3gXVcl1GsU1vEnl-19" value="" style="endArrow=classic;html=1;rounded=0;exitX=0;exitY=0.75;exitDx=0;exitDy=0;entryX=0.783;entryY=0;entryDx=0;entryDy=0;entryPerimeter=0;" edge="1" parent="1" source="0_XSR3gXVcl1GsU1vEnl-4" target="0_XSR3gXVcl1GsU1vEnl-1">
          <mxGeometry width="50" height="50" relative="1" as="geometry">
            <mxPoint x="380" y="310" as="sourcePoint" />
            <mxPoint x="430" y="260" as="targetPoint" />
          </mxGeometry>
        </mxCell>
        <mxCell id="0_XSR3gXVcl1GsU1vEnl-20" value="notifies" style="edgeLabel;html=1;align=center;verticalAlign=middle;resizable=0;points=[];" vertex="1" connectable="0" parent="0_XSR3gXVcl1GsU1vEnl-19">
          <mxGeometry x="-0.0184" y="2" relative="1" as="geometry">
            <mxPoint as="offset" />
          </mxGeometry>
        </mxCell>
        <mxCell id="fTeF7x29ybnqTCIJc4Ug-1" value="LTA API" style="html=1;whiteSpace=wrap;strokeColor=none;fillColor=#0079D6;labelPosition=center;verticalLabelPosition=middle;verticalAlign=top;align=center;fontSize=12;outlineConnect=0;spacingTop=-6;fontColor=#FFFFFF;sketch=0;shape=mxgraph.sitemap.cloud;" vertex="1" parent="1">
          <mxGeometry x="642" y="110" width="120" height="70" as="geometry" />
        </mxCell>
        <mxCell id="fTeF7x29ybnqTCIJc4Ug-2" value="MAPBOX API" style="html=1;whiteSpace=wrap;strokeColor=none;fillColor=#0079D6;labelPosition=center;verticalLabelPosition=middle;verticalAlign=top;align=center;fontSize=12;outlineConnect=0;spacingTop=-6;fontColor=#FFFFFF;sketch=0;shape=mxgraph.sitemap.cloud;" vertex="1" parent="1">
          <mxGeometry x="450" y="360" width="120" height="70" as="geometry" />
        </mxCell>
        <mxCell id="fTeF7x29ybnqTCIJc4Ug-3" value="DATAGOVSG API" style="html=1;whiteSpace=wrap;strokeColor=none;fillColor=#0079D6;labelPosition=center;verticalLabelPosition=middle;verticalAlign=top;align=center;fontSize=12;outlineConnect=0;spacingTop=-6;fontColor=#FFFFFF;sketch=0;shape=mxgraph.sitemap.cloud;" vertex="1" parent="1">
          <mxGeometry x="642" y="290" width="120" height="70" as="geometry" />
        </mxCell>
        <mxCell id="fTeF7x29ybnqTCIJc4Ug-4" value="ONEMAP API" style="html=1;whiteSpace=wrap;strokeColor=none;fillColor=#0079D6;labelPosition=center;verticalLabelPosition=middle;verticalAlign=top;align=center;fontSize=12;outlineConnect=0;spacingTop=-6;fontColor=#FFFFFF;sketch=0;shape=mxgraph.sitemap.cloud;" vertex="1" parent="1">
          <mxGeometry x="165" y="360" width="120" height="70" as="geometry" />
        </mxCell>
        <mxCell id="fTeF7x29ybnqTCIJc4Ug-5" value="ONEMAP API" style="html=1;whiteSpace=wrap;strokeColor=none;fillColor=#0079D6;labelPosition=center;verticalLabelPosition=middle;verticalAlign=top;align=center;fontSize=12;outlineConnect=0;spacingTop=-6;fontColor=#FFFFFF;sketch=0;shape=mxgraph.sitemap.cloud;" vertex="1" parent="1">
          <mxGeometry x="310" y="360" width="120" height="70" as="geometry" />
        </mxCell>
        <mxCell id="fTeF7x29ybnqTCIJc4Ug-6" value="" style="endArrow=classic;html=1;rounded=0;exitX=1.038;exitY=0.154;exitDx=0;exitDy=0;exitPerimeter=0;entryX=0;entryY=0.5;entryDx=0;entryDy=0;entryPerimeter=0;" edge="1" parent="1" source="0_XSR3gXVcl1GsU1vEnl-3" target="fTeF7x29ybnqTCIJc4Ug-1">
          <mxGeometry width="50" height="50" relative="1" as="geometry">
            <mxPoint x="460" y="192" as="sourcePoint" />
            <mxPoint x="637" y="191" as="targetPoint" />
          </mxGeometry>
        </mxCell>
        <mxCell id="fTeF7x29ybnqTCIJc4Ug-7" value="polls" style="edgeLabel;html=1;align=center;verticalAlign=middle;resizable=0;points=[];" connectable="0" vertex="1" parent="fTeF7x29ybnqTCIJc4Ug-6">
          <mxGeometry x="0.4219" y="-3" relative="1" as="geometry">
            <mxPoint x="-26" y="-4" as="offset" />
          </mxGeometry>
        </mxCell>
        <mxCell id="fTeF7x29ybnqTCIJc4Ug-8" value="" style="endArrow=classic;html=1;rounded=0;entryX=0;entryY=0.5;entryDx=0;entryDy=0;entryPerimeter=0;" edge="1" parent="1" target="fTeF7x29ybnqTCIJc4Ug-3">
          <mxGeometry width="50" height="50" relative="1" as="geometry">
            <mxPoint x="470" y="260" as="sourcePoint" />
            <mxPoint x="665" y="230" as="targetPoint" />
          </mxGeometry>
        </mxCell>
        <mxCell id="fTeF7x29ybnqTCIJc4Ug-9" value="polls" style="edgeLabel;html=1;align=center;verticalAlign=middle;resizable=0;points=[];" connectable="0" vertex="1" parent="fTeF7x29ybnqTCIJc4Ug-8">
          <mxGeometry x="0.4219" y="-3" relative="1" as="geometry">
            <mxPoint x="-26" y="-4" as="offset" />
          </mxGeometry>
        </mxCell>
        <mxCell id="fTeF7x29ybnqTCIJc4Ug-16" value="" style="endArrow=classic;html=1;rounded=0;entryX=0.5;entryY=0;entryDx=0;entryDy=0;entryPerimeter=0;" edge="1" parent="1" source="0_XSR3gXVcl1GsU1vEnl-3" target="fTeF7x29ybnqTCIJc4Ug-2">
          <mxGeometry width="50" height="50" relative="1" as="geometry">
            <mxPoint x="672" y="255" as="sourcePoint" />
            <mxPoint x="500" y="255" as="targetPoint" />
          </mxGeometry>
        </mxCell>
        <mxCell id="fTeF7x29ybnqTCIJc4Ug-17" value="route computations" style="edgeLabel;html=1;align=center;verticalAlign=middle;resizable=0;points=[];" connectable="0" vertex="1" parent="fTeF7x29ybnqTCIJc4Ug-16">
          <mxGeometry x="-0.2413" relative="1" as="geometry">
            <mxPoint x="18" y="17" as="offset" />
          </mxGeometry>
        </mxCell>
        <mxCell id="fTeF7x29ybnqTCIJc4Ug-18" value="" style="endArrow=classic;html=1;rounded=0;exitX=0.25;exitY=1;exitDx=0;exitDy=0;exitPerimeter=0;" edge="1" parent="1" source="0_XSR3gXVcl1GsU1vEnl-3" target="fTeF7x29ybnqTCIJc4Ug-5">
          <mxGeometry width="50" height="50" relative="1" as="geometry">
            <mxPoint x="682" y="265" as="sourcePoint" />
            <mxPoint x="510" y="265" as="targetPoint" />
          </mxGeometry>
        </mxCell>
        <mxCell id="fTeF7x29ybnqTCIJc4Ug-19" value="reverse geocoding" style="edgeLabel;html=1;align=center;verticalAlign=middle;resizable=0;points=[];" connectable="0" vertex="1" parent="fTeF7x29ybnqTCIJc4Ug-18">
          <mxGeometry x="-0.2413" relative="1" as="geometry">
            <mxPoint x="-21" y="22" as="offset" />
          </mxGeometry>
        </mxCell>
        <mxCell id="fTeF7x29ybnqTCIJc4Ug-21" value="" style="endArrow=classic;html=1;rounded=0;exitX=0.5;exitY=1;exitDx=0;exitDy=0;exitPerimeter=0;entryX=0.5;entryY=0;entryDx=0;entryDy=0;entryPerimeter=0;" edge="1" parent="1" source="0_XSR3gXVcl1GsU1vEnl-1" target="fTeF7x29ybnqTCIJc4Ug-4">
          <mxGeometry width="50" height="50" relative="1" as="geometry">
            <mxPoint x="692" y="275" as="sourcePoint" />
            <mxPoint x="520" y="275" as="targetPoint" />
          </mxGeometry>
        </mxCell>
        <mxCell id="fTeF7x29ybnqTCIJc4Ug-22" value="search autocomplete" style="edgeLabel;html=1;align=center;verticalAlign=middle;resizable=0;points=[];" connectable="0" vertex="1" parent="fTeF7x29ybnqTCIJc4Ug-21">
          <mxGeometry x="-0.2413" relative="1" as="geometry">
            <mxPoint y="5" as="offset" />
          </mxGeometry>
        </mxCell>
      </root>
    </mxGraphModel>
  </diagram>
</mxfile>
